<?xml version="1.0"?>
<svg xmlns="http://www.w3.org/2000/svg" xmlns:xlink="http://www.w3.org/1999/xlink" id="Gradient" viewBox="0 0 512 512" width="512" height="512"><defs><linearGradient id="linear-gradient" x1="256" y1="496" x2="256" y2="16" gradientUnits="userSpaceOnUse"><stop offset="0" stop-color="#12c2e9"/><stop offset="0.5" stop-color="#c471ed"/><stop offset="1" stop-color="#f64f59"/></linearGradient></defs><path d="M28.115,342.993C31.129,344.668,102.769,384,176,384c7.848,0,15.889-.4,24-1.174V488a8,8,0,0,0,8,8H480a8,8,0,0,0,8-8V312a8,8,0,0,0-8-8H325.787a195.742,195.742,0,0,0-14.425-51.556A471.6,471.6,0,0,1,368,248.068V264a8,8,0,0,0,13.206,6.074l56-48a8,8,0,0,0,0-12.148l-56-48A8,8,0,0,0,368,168v16.186c-26.385,1.21-54.478,8.275-76.6,19.414q-4.386,2.208-8.349,4.564c-18.693-20.824-41.825-35.355-67.479-42.681a80,80,0,1,0-79.111.021A143.766,143.766,0,0,0,68.187,209C39.692,241.19,24,286.292,24,336A8,8,0,0,0,28.115,342.993ZM472,480H216V330.515l122.518,115.31a8,8,0,0,0,10.964,0L472,330.515ZM459.828,320,344,429.014,228.172,320ZM376,200a8,8,0,0,0,8-8v-6.606L419.707,216,384,246.606V240a8,8,0,0,0-8-8c-50.779,0-89.572,7.729-108.935,12.586C279.547,221.014,328.162,200,376,200ZM112,96a64,64,0,1,1,64,64A64.072,64.072,0,0,1,112,96ZM80.166,219.609C105.062,191.487,139.1,176,176,176c36.021,0,69.071,14.632,93.777,41.345C255.592,228.908,248,242.185,248,256a8,8,0,0,0,10.524,7.591c.119-.039,12-3.946,32.342-7.8,1.306-.247,2.685-.5,4.1-.751A177.4,177.4,0,0,1,309.622,304H208a8,8,0,0,0-8,8v54.748A237.291,237.291,0,0,1,176,368c-59.383,0-119.8-28.588-135.947-36.81C41.018,287.315,55.176,247.839,80.166,219.609Z" style="fill:url(#linear-gradient)"/></svg>
